
		<svg xmlns="http://www.w3.org/2000/svg" xmlns:xlink="http://www.w3.org/1999/xlink" version="1.1" width="3144.230769230769" height="670.6730769230769">
			
			<g transform="scale(7.211538461538462) translate(10, 10)">
				<defs id="SvgjsDefs2001"/><g id="main_text" rel="mainfill" name="main_text" feature="main_text" xmlns:name="mainText_mainfill" groupName="main_text" fill="#fff" transform="translate(141.8665463414414, -7.3173956230528105) scale(2.7075509156439006)"><path d="M5.58 24.28 c-2.62 0 -4.92 -1.26 -5.16 -4.16 c-0.02 -0.34 0.18 -0.52 0.5 -0.52 l2.2 0 c0.3 0 0.46 0.16 0.52 0.48 c0.16 0.72 0.76 1.08 1.94 1.08 c1.3 0 1.72 -0.5 1.72 -1.08 c0 -0.82 -1 -1.18 -2.22 -1.6 c-1.98 -0.68 -4.48 -1.5 -4.48 -4.56 c0 -2.8 2.28 -4.2 4.66 -4.2 c2.34 0 4.58 1.26 4.82 4.16 c0.02 0.34 -0.18 0.52 -0.5 0.52 l-2.2 0 c-0.3 0 -0.46 -0.16 -0.52 -0.48 c-0.16 -0.74 -0.68 -1.08 -1.6 -1.08 c-1 0 -1.46 0.5 -1.46 1.08 c0 0.84 0.82 1.24 1.98 1.66 c2 0.7 4.72 1.42 4.72 4.5 c0 2.8 -2.24 4.2 -4.92 4.2 z M17.98 13.72 c2.62 0 4.78 2.3 4.78 5.28 s-2.16 5.28 -4.78 5.28 c-1.3382 0 -2.3112 -0.4516 -2.9798 -1.214 l0 4.434 c0 0.32 -0.18 0.5 -0.5 0.5 l-2 0 c-0.32 0 -0.5 -0.18 -0.5 -0.5 l0 -13 c0 -0.32 0.18 -0.5 0.5 -0.5 l2 0 c0.32 0 0.5 0.18 0.5 0.5 l0 0.434 c0.6686 -0.7624 1.6416 -1.214 2.9798 -1.214 z M17.380000000000003 21.44 c1.38 0 2.38 -0.94 2.38 -2.44 s-1 -2.44 -2.38 -2.44 s-2.38 0.94 -2.38 2.44 s1 2.44 2.38 2.44 z M29.259999999999998 24.28 c-2.94 0 -5.3 -2.3 -5.3 -5.28 s2.36 -5.28 5.3 -5.28 s5.3 2.3 5.3 5.28 s-2.36 5.28 -5.3 5.28 z M29.259999999999998 21.36 c1.3 0 2.3 -0.94 2.3 -2.36 s-1 -2.36 -2.3 -2.36 s-2.3 0.94 -2.3 2.36 s1 2.36 2.3 2.36 z M41.16 14 c0.32 0 0.5 0.18 0.5 0.5 l0 1.88 c0 0.32 -0.18 0.5 -0.5 0.5 l-1.1 0 l0 6.62 c0 0.32 -0.18 0.5 -0.5 0.5 l-2 0 c-0.32 0 -0.5 -0.18 -0.5 -0.5 l0 -6.62 l-1.1 0 c-0.32 0 -0.5 -0.18 -0.5 -0.5 l0 -1.88 c0 -0.32 0.18 -0.5 0.5 -0.5 l1.1 0 l0 -2.7 c0 -0.32 0.18 -0.5 0.5 -0.5 l2 0 c0.32 0 0.5 0.18 0.5 0.5 l0 2.7 l1.1 0 z M52.84499999999999 15.6094 c1.41 0.7774 2.3154 2.2184 2.3154 3.9906 c0 2.52 -1.88 4.4 -4.42 4.4 l-6.78 0 l-0.3 0 c-0.32 0 -0.5 -0.18 -0.5 -0.5 l0 -13 c0 -0.32 0.18 -0.5 0.5 -0.5 l2.7 0 l2.7 0 c2.46 0 4.3 1.64 4.3 3.9 c0 0.6118 -0.19119 1.2034 -0.5154 1.7094 z M49.059999999999995 13 l-2.7 0 l0 2 l3.4 0 c0.26 -0.24 0.4 -0.58 0.4 -0.9 c0 -0.66 -0.44 -1.1 -1.1 -1.1 z M50.339999999999996 20.9998 c1.16 0 1.62 -0.7 1.62 -1.6 s-0.46 -1.6 -1.6 -1.6 l-4 0 l0 3.2 l3.98 0 z M64.8 14 c0.32 0 0.5 0.18 0.5 0.5 l0 9 c0 0.32 -0.18 0.5 -0.5 0.5 l-2 0 c-0.32 0 -0.5 -0.18 -0.5 -0.5 l0 -0.4134 c-0.47 0.695 -1.3214 1.1934 -2.6 1.1934 c-1.86 0 -3.2 -1.44 -3.2 -3.94 l0 -5.84 c0 -0.32 0.18 -0.5 0.5 -0.5 l2 0 c0.32 0 0.5 0.18 0.5 0.5 l0 5.58 c0 1 0.58 1.44 1.34 1.44 c0.9 0 1.46 -0.5 1.46 -1.68 l0 -5.34 c0 -0.32 0.18 -0.5 0.5 -0.5 l2 0 z M77.25999999999999 10 c0.32 0 0.5 0.18 0.5 0.5 l0 13 c0 0.32 -0.18 0.5 -0.5 0.5 l-2 0 c-0.32 0 -0.5 -0.18 -0.5 -0.5 l0 -0.434 c-0.6686 0.7624 -1.6416 1.214 -2.9798 1.214 c-2.62 0 -4.78 -2.3 -4.78 -5.28 s2.16 -5.28 4.78 -5.28 c1.3382 0 2.3112 0.4516 2.9798 1.214 l0 -4.434 c0 -0.32 0.18 -0.5 0.5 -0.5 l2 0 z M72.38 21.44 c1.38 0 2.38 -0.94 2.38 -2.44 s-1 -2.44 -2.38 -2.44 s-2.38 0.94 -2.38 2.44 s1 2.44 2.38 2.44 z M89.71999999999998 10 c0.32 0 0.5 0.18 0.5 0.5 l0 13 c0 0.32 -0.18 0.5 -0.5 0.5 l-2 0 c-0.32 0 -0.5 -0.18 -0.5 -0.5 l0 -0.434 c-0.6686 0.7624 -1.6416 1.214 -2.9798 1.214 c-2.62 0 -4.78 -2.3 -4.78 -5.28 s2.16 -5.28 4.78 -5.28 c1.3382 0 2.3112 0.4516 2.9798 1.214 l0 -4.434 c0 -0.32 0.18 -0.5 0.5 -0.5 l2 0 z M84.83999999999999 21.44 c1.38 0 2.38 -0.94 2.38 -2.44 s-1 -2.44 -2.38 -2.44 s-2.38 0.94 -2.38 2.44 s1 2.44 2.38 2.44 z M98.19999999999999 14.42 c0.08 -0.28 0.28 -0.42 0.56 -0.42 l2.16 0 c0.36 0 0.54 0.2 0.42 0.56 l-4.32 13.04 c-0.08 0.28 -0.3 0.4 -0.58 0.4 l-2.16 0 c-0.36 0 -0.54 -0.2 -0.42 -0.56 l1.2 -3.6 l-3.52 -9.26 c-0.12 -0.34 0.04 -0.58 0.4 -0.58 l2.16 0 c0.28 0 0.46 0.14 0.56 0.4 l1.9 5.3 z"/></g><g id="SvgjsG2003" rel="mainfill" name="symbol" feature="symbol" xmlns:name="symbol_mainfill" fill="#fff" transform="translate(9.91389504974271, -18.12172111999888) scale(1.2405138641783486)"><g><path d="M22.3,51c2.8,0,5-2.2,5-5c0-2.8-2.2-5-5-5c-2.8,0-5,2.2-5,5C17.3,48.7,19.5,51,22.3,51z M22.3,44c1.1,0,2,0.9,2,2   c0,1.1-0.9,2-2,2c-1.1,0-2-0.9-2-2C20.3,44.9,21.2,44,22.3,44z"/><path d="M33.8,41c-2.8,0-5,2.2-5,5c0,2.8,2.2,5,5,5s5-2.2,5-5C38.8,43.2,36.5,41,33.8,41z M33.8,48c-1.1,0-2-0.9-2-2   c0-1.1,0.9-2,2-2s2,0.9,2,2C35.8,47.1,34.9,48,33.8,48z"/><path d="M35.7,55.3c-2.7,2.6-5.4,3.8-8.1,3.7c-4-0.2-6.7-3.5-6.8-3.5c-0.5-0.6-1.5-0.7-2.1-0.2c-0.6,0.5-0.7,1.5-0.2,2.1   c0.1,0.2,3.6,4.3,8.9,4.6c0.2,0,0.5,0,0.7,0c3.3,0,6.6-1.5,9.7-4.5c0.6-0.6,0.6-1.5,0-2.1C37.3,54.7,36.3,54.7,35.7,55.3z"/><circle cx="65.7" cy="46" r="2"/><circle cx="77.2" cy="46" r="2"/><path d="M72,27.2c-10.3,0-19,6.7-21.9,16c-3-9.6-11.9-16.5-22.5-16.5c-13,0-23.5,10.6-23.5,23.5c0,13,10.6,23.5,23.5,23.5   c10.5,0,19.5-7,22.5-16.5c3,9.3,11.7,16,21.9,16c12.7,0,23-10.3,23-23S84.7,27.2,72,27.2z M27.6,67.7c-9.7,0-17.5-7.9-17.5-17.5   c0-9.7,7.9-17.5,17.5-17.5s17.5,7.9,17.5,17.5C45.1,59.9,37.3,67.7,27.6,67.7z M65.7,41c2.8,0,5,2.2,5,5c0,2.8-2.2,5-5,5   s-5-2.2-5-5C60.6,43.2,62.9,41,65.7,41z M81.2,57.4c-3.1,3-6.4,4.5-9.7,4.5c-0.2,0-0.4,0-0.7,0c-5.3-0.3-8.7-4.4-8.9-4.6   c-0.5-0.6-0.4-1.6,0.2-2.1c0.6-0.5,1.6-0.4,2.1,0.2c0,0,2.8,3.3,6.8,3.5c2.7,0.2,5.4-1.1,8.1-3.7c0.6-0.6,1.5-0.6,2.1,0   C81.8,55.9,81.8,56.9,81.2,57.4z M77.2,51c-2.8,0-5-2.2-5-5c0-2.8,2.2-5,5-5c2.8,0,5,2.2,5,5C82.2,48.7,79.9,51,77.2,51z"/></g></g>
			</g>
		</svg>
	